<svg width="17" height="22" viewBox="0 0 17 22" fill="none" xmlns="http://www.w3.org/2000/svg">
<path d="M15.8779 5.28875L11.7113 1.12207C11.6331 1.04395 11.5273 1 11.4166 1H2.66664C1.74789 1 1 1.74746 1 2.66668V19.3334C1 20.2525 1.74789 21 2.66668 21H14.3334C15.2521 21 16 20.2525 16 19.3333V5.58332C16 5.47266 15.9561 5.36688 15.8779 5.28875ZM11.8333 2.42254L14.5775 5.16668H12.6666C12.2068 5.16668 11.8333 4.79273 11.8333 4.33336V2.42254ZM15.1667 19.3333C15.1667 19.7927 14.7931 20.1666 14.3334 20.1666H2.66668C2.20687 20.1666 1.83336 19.7927 1.83336 19.3333V2.66668C1.83336 2.2073 2.20691 1.83336 2.66668 1.83336H11V4.33336C11 5.25254 11.7479 6 12.6667 6H15.1667V19.3333Z" fill="#4198C5" stroke="#4198C5" stroke-width="0.4"/>
<path d="M13.084 12.6667H7.25067C7.02035 12.6667 6.83398 12.9575 6.83398 13.3167C6.83398 13.676 7.02035 13.9667 7.25067 13.9667H13.084C13.3143 13.9667 13.5007 13.676 13.5007 13.3167C13.5007 12.9575 13.3143 12.6667 13.084 12.6667Z" fill="#4198C5"/>
<path d="M3.91668 6.4665H8.91668C9.14699 6.4665 9.33336 6.17578 9.33336 5.8165C9.33336 5.45723 9.14699 5.1665 8.91668 5.1665H3.91668C3.68637 5.1665 3.5 5.45723 3.5 5.8165C3.5 6.17578 3.68637 6.4665 3.91668 6.4665Z" fill="#4198C5"/>
<path d="M13.0833 10.1667H3.91668C3.68637 10.1667 3.5 10.4575 3.5 10.8167C3.5 11.176 3.68637 11.4667 3.91668 11.4667H13.0834C13.3137 11.4667 13.5 11.176 13.5 10.8167C13.5 10.4575 13.3136 10.1667 13.0833 10.1667Z" fill="#4198C5"/>
<path d="M3.5 8.3165C3.5 8.67578 3.68637 8.9665 3.91668 8.9665H13.0834C13.3137 8.9665 13.5 8.67578 13.5 8.3165C13.5 7.95723 13.3137 7.6665 13.0834 7.6665H3.91668C3.68637 7.66656 3.5 7.95729 3.5 8.3165Z" fill="#4198C5"/>
<path d="M9.45785 16.1196C8.84504 16.7226 8.07277 17.4021 7.76676 17.6088C7.69434 17.4449 7.61215 17.1706 7.5625 17.0042C7.39324 16.4431 7.26059 15.9999 6.83332 15.9999C6.46793 15.9999 6.30352 16.334 6.05449 16.8394C5.93242 17.0868 5.67934 17.6019 5.58738 17.6666C5.49703 17.6572 5.34242 17.5518 5.17234 17.3932C5.63137 16.8003 6 16.1139 6 15.5833C6 14.6726 5.2334 14.3333 4.75 14.3333C4.25848 14.3333 3.5 15.049 3.5 15.9999C3.5 16.4215 3.73355 16.9423 4.06477 17.3993C3.93293 17.5311 3.79863 17.6508 3.6668 17.75C3.48289 17.8879 3.44543 18.1492 3.58297 18.3331C3.66516 18.4425 3.79051 18.4999 3.91664 18.4999C4.00371 18.4999 4.0916 18.4727 4.16648 18.4165C4.31055 18.3087 4.46516 18.1732 4.62059 18.0186C4.94691 18.3091 5.29359 18.4999 5.58332 18.4999C6.14648 18.4999 6.48094 17.8591 6.77148 17.2695C6.96355 17.9059 7.1491 18.4999 7.66668 18.4999C7.80586 18.4999 8.2282 18.4999 10.0422 16.7136C10.2066 16.5521 10.2082 16.2884 10.0471 16.1245C9.8859 15.9597 9.62223 15.9588 9.45785 16.1196ZM4.62305 16.7389C4.45379 16.4809 4.33332 16.2132 4.33332 15.9999C4.33332 15.4917 4.70605 15.1943 4.75 15.1666C4.81918 15.1666 5.16668 15.1865 5.16668 15.5833C5.16668 15.849 4.94207 16.2974 4.62305 16.7389Z" fill="#4198C5" stroke="#4198C5" stroke-width="0.3"/>
</svg>
