<?xml version="1.0" encoding="UTF-8"?>
<svg width="90px" height="42px" viewBox="0 0 90 42" version="1.1" xmlns="http://www.w3.org/2000/svg" xmlns:xlink="http://www.w3.org/1999/xlink">
    <!-- Generator: Sketch 51.1 (57501) - http://www.bohemiancoding.com/sketch -->
    <title>Group 2</title>
    <desc>Created with Sketch.</desc>
    <defs></defs>
    <g id="Symbols" stroke="none" stroke-width="1" fill="none" fill-rule="evenodd">
        <g id="Шапка-инструктора/" transform="translate(-390.000000, -14.000000)">
            <g id="Group-2" transform="translate(390.000000, 14.000000)">
                <g id="Лого" fill="#4198C5">
                    <path d="M35.7835048,24.6624187 C34.8091476,24.6624187 34.0387373,24.3746518 33.4722506,23.7991094 C32.9057639,23.2235669 32.6225247,22.4408409 32.6225247,21.4509079 L32.6225247,1.32756803 C32.8717789,1.28152464 33.2683136,1.21821592 33.8121409,1.13763997 C34.3559681,1.05706403 34.8771281,1.01677667 35.3756364,1.01677667 C35.8968041,1.01677667 36.3556515,1.05706403 36.7521922,1.13763997 C37.1487329,1.21821592 37.482955,1.36209937 37.7548686,1.56929465 C38.0267822,1.77648993 38.2307144,2.06425684 38.3666712,2.432604 C38.502628,2.80095117 38.5706054,3.28439957 38.5706054,3.88296372 L38.5706054,19.793354 L46.3540938,19.793354 C46.5127101,20.0465926 46.6599944,20.3861576 46.7959512,20.812059 C46.931908,21.2379604 46.9998854,21.6811214 46.9998854,22.1415554 C46.9998854,23.0624233 46.8072828,23.7127765 46.4220719,24.0926345 C46.0368609,24.4724926 45.5270305,24.6624187 44.8925654,24.6624187 L35.7835048,24.6624187 Z M55.487082,24.3465573 C55.2378279,24.3926007 54.869617,24.4559095 54.3824385,24.5364854 C53.8952599,24.6170613 53.4024239,24.6573487 52.9039156,24.6573487 C52.4054073,24.6573487 51.9578895,24.6228167 51.5613488,24.5537516 C51.1648081,24.4846865 50.8305859,24.3465584 50.5586723,24.1393631 C50.2867587,23.9321678 50.0771618,23.6501562 49.9298752,23.2933199 C49.7825887,22.9364836 49.7089465,22.4703012 49.7089465,21.8947588 L49.7089465,7.84008252 C49.9582007,7.79403912 50.3264115,7.7307304 50.8135901,7.65015446 C51.3007686,7.56957852 51.7936047,7.52929115 52.292113,7.52929115 C52.7906213,7.52929115 53.2381391,7.56382318 53.6346797,7.63288827 C54.0312204,7.70195336 54.3654426,7.84008148 54.6373562,8.04727676 C54.9092698,8.25447204 55.1188668,8.53648361 55.2661533,8.89331993 C55.4134398,9.25015624 55.487082,9.71633863 55.487082,10.2918811 L55.487082,24.3465573 Z M59.2610651,7.61416815 C59.2610651,6.44006156 59.4593324,5.43287739 59.8558731,4.59258542 C60.2524138,3.75229345 60.7905681,3.06165287 61.4703522,2.52064297 C62.1501362,1.97963307 62.9488705,1.58251474 63.8665789,1.32927607 C64.7842874,1.07603739 65.7642947,0.949419952 66.8066302,0.949419952 C68.4834309,0.949419952 69.7183534,1.17387814 70.5114348,1.62280125 C71.3045161,2.07172436 71.7010509,2.83718433 71.7010509,3.91920413 C71.7010509,4.37963808 71.6047496,4.79402243 71.4121441,5.16236959 C71.2195386,5.53071676 71.0099417,5.80697299 70.783347,5.99114657 C70.3528171,5.87603808 69.9052993,5.77819733 69.4407802,5.69762139 C68.9762611,5.61704545 68.4381068,5.57675808 67.8263012,5.57675808 C66.8519441,5.57675808 66.0928633,5.74366289 65.549036,6.07747751 C65.0052088,6.41129213 64.7332993,6.99258128 64.7332993,7.8213624 L64.7332993,8.92639837 L70.3075006,8.92639837 C70.4434574,9.17963705 70.5737474,9.49618064 70.6983744,9.87603866 C70.8230015,10.2558967 70.8853141,10.6760364 70.8853141,11.1364703 C70.8853141,11.9422297 70.7097059,12.5235189 70.3584841,12.8803552 C70.0072624,13.2371915 69.5370854,13.415607 68.9479393,13.415607 L65.0392006,13.415607 L65.0392006,24.3623696 C64.8126059,24.4314347 64.4557246,24.5004987 63.968546,24.5695638 C63.4813675,24.6386289 62.9772019,24.673161 62.4560341,24.673161 C61.9575258,24.673161 61.510008,24.6386289 61.1134673,24.5695638 C60.7169266,24.5004987 60.3827045,24.3623706 60.1107909,24.1551753 C59.8388772,23.9479801 59.6292803,23.6659685 59.4819938,23.3091322 C59.3347072,22.9522959 59.2610651,22.4861135 59.2610651,21.910571 L59.2610651,7.61416815 Z M5.60189011,24.3555966 C5.38344535,24.4236577 5.03940002,24.4917178 4.56974379,24.5597789 C4.10008756,24.62784 3.61405527,24.66187 3.11163232,24.66187 C2.63105386,24.66187 2.19963193,24.62784 1.8173536,24.5597789 C1.43507528,24.4917178 1.11287409,24.3555976 0.850740385,24.1514143 C0.588606675,23.9472309 0.386548305,23.6693189 0.244559213,23.3176698 C0.10257012,22.9660208 0.0315766389,22.5066152 0.0315766389,21.9394393 L0.0315766389,11.7303238 C0.0315766389,11.208522 0.124414268,10.7604597 0.310092313,10.3861236 C0.495770357,10.0117875 0.763361171,9.67715876 1.11287278,9.38222728 C1.4623844,9.08729581 1.89380632,8.82072713 2.4071515,8.58251324 C2.92049668,8.34429936 3.47206142,8.13444742 4.06186227,7.95295113 C4.65166311,7.77145483 5.26329926,7.62966298 5.89678906,7.52757132 C6.53027886,7.42547965 7.16375915,7.37443458 7.79724895,7.37443458 C8.84578379,7.37443458 9.67586142,7.58428653 10.2875067,8.0039967 C10.8991521,8.42370688 11.2049701,9.10997944 11.2049701,10.062835 C11.2049701,10.3804535 11.1612818,10.6923956 11.0739039,10.9986706 C10.986526,11.3049456 10.8773053,11.5828576 10.7462384,11.832415 C10.2875044,11.832415 9.81785526,11.8551017 9.33727679,11.9004758 C8.85669832,11.9458498 8.38704914,12.0139099 7.92831515,12.1046581 C7.46958116,12.1954062 7.03815923,12.2918247 6.63403643,12.3939163 C6.22991363,12.496008 5.8858683,12.6151132 5.60189011,12.7512354 L5.60189011,24.3555966 Z M22.3633232,24.6798623 C21.0874842,24.6798623 19.9035666,24.4925496 18.811535,24.1179185 C17.7195033,23.7432874 16.7680444,23.1813492 15.9571298,22.432087 C15.1462152,21.6828248 14.5083052,20.740585 14.0433809,19.6053393 C13.5784565,18.4700936 13.3459978,17.141876 13.3459978,15.6206467 C13.3459978,14.1221224 13.5784565,12.8336378 14.0433809,11.7551544 C14.5083052,10.6766709 15.1191851,9.79119253 15.8760387,9.09869264 C16.6328924,8.40619275 17.497855,7.89533984 18.4709525,7.56611858 C19.4440501,7.23689732 20.4387571,7.07228916 21.4551034,7.07228916 C22.601196,7.07228916 23.6445572,7.25392575 24.5852181,7.61720438 C25.5258791,7.98048301 26.3367815,8.47998364 27.0179498,9.11572124 C27.6991181,9.75145885 28.2289077,10.5120621 28.6073345,11.3975537 C28.9857613,12.2830454 29.1749719,13.2479898 29.1749719,14.2924159 C29.1749719,15.064383 28.9695433,15.6547019 28.5586799,16.0633903 C28.1478165,16.4720788 27.5747787,16.7331814 26.8395495,16.846706 L18.8277532,18.1068224 C19.0656215,18.8560846 19.5521629,19.4180228 20.2873922,19.7926539 C21.0226214,20.167285 21.86596,20.3545977 22.8174331,20.3545977 C23.7040331,20.3545977 24.5419656,20.2353987 25.3312558,19.9969971 C26.1205461,19.7585955 26.763862,19.4804645 27.261223,19.1625957 C27.6072132,19.3896448 27.8991381,19.7075089 28.1370064,20.1161973 C28.3748747,20.5248858 28.493807,20.9562727 28.493807,21.410371 C28.493807,22.4320921 28.0397017,23.1926953 27.1314773,23.6922035 C26.4394968,24.078187 25.6610305,24.3392896 24.7960549,24.4755191 C23.9310793,24.6117486 23.1201768,24.6798623 22.3633232,24.6798623 Z M21.3503294,11.5542169 C20.8275949,11.5542169 20.3756542,11.6415263 19.9944936,11.8161477 C19.6133331,11.9907691 19.3029641,12.2144995 19.0633775,12.4873455 C18.8237909,12.7601915 18.6441036,13.0657744 18.5243103,13.4041034 C18.4045169,13.7424325 18.3337311,14.0862132 18.3119504,14.4354561 L23.8986472,13.5186982 C23.8333054,13.0821446 23.5937223,12.6455976 23.1798909,12.209044 C22.7660594,11.7724904 22.1562117,11.5542169 21.3503294,11.5542169 Z M82.3633232,24.6798623 C81.0874842,24.6798623 79.9035666,24.4925496 78.811535,24.1179185 C77.7195033,23.7432874 76.7680444,23.1813492 75.9571298,22.432087 C75.1462152,21.6828248 74.5083052,20.740585 74.0433809,19.6053393 C73.5784565,18.4700936 73.3459978,17.141876 73.3459978,15.6206467 C73.3459978,14.1221224 73.5784565,12.8336378 74.0433809,11.7551544 C74.5083052,10.6766709 75.1191851,9.79119253 75.8760387,9.09869264 C76.6328924,8.40619275 77.497855,7.89533984 78.4709525,7.56611858 C79.4440501,7.23689732 80.4387571,7.07228916 81.4551034,7.07228916 C82.601196,7.07228916 83.6445572,7.25392575 84.5852181,7.61720438 C85.5258791,7.98048301 86.3367815,8.47998364 87.0179498,9.11572124 C87.6991181,9.75145885 88.2289077,10.5120621 88.6073345,11.3975537 C88.9857613,12.2830454 89.1749719,13.2479898 89.1749719,14.2924159 C89.1749719,15.064383 88.9695433,15.6547019 88.5586799,16.0633903 C88.1478165,16.4720788 87.5747787,16.7331814 86.8395495,16.846706 L78.8277532,18.1068224 C79.0656215,18.8560846 79.5521629,19.4180228 80.2873922,19.7926539 C81.0226214,20.167285 81.86596,20.3545977 82.8174331,20.3545977 C83.7040331,20.3545977 84.5419656,20.2353987 85.3312558,19.9969971 C86.1205461,19.7585955 86.763862,19.4804645 87.261223,19.1625957 C87.6072132,19.3896448 87.8991381,19.7075089 88.1370064,20.1161973 C88.3748747,20.5248858 88.493807,20.9562727 88.493807,21.410371 C88.493807,22.4320921 88.0397017,23.1926953 87.1314773,23.6922035 C86.4394968,24.078187 85.6610305,24.3392896 84.7960549,24.4755191 C83.9310793,24.6117486 83.1201768,24.6798623 82.3633232,24.6798623 Z M81.3503294,11.5542169 C80.8275949,11.5542169 80.3756542,11.6415263 79.9944936,11.8161477 C79.6133331,11.9907691 79.3029641,12.2144995 79.0633775,12.4873455 C78.8237909,12.7601915 78.6441036,13.0657744 78.5243103,13.4041034 C78.4045169,13.7424325 78.3337311,14.0862132 78.3119504,14.4354561 L83.8986472,13.5186982 C83.8333054,13.0821446 83.5937223,12.6455976 83.1798909,12.209044 C82.7660594,11.7724904 82.1562117,11.5542169 81.3503294,11.5542169 Z M57.198761,1.0057121 C57.0591671,1.91095744 56.6911468,2.73583054 56.1539217,3.42956997 C55.1725343,4.70283562 53.6370013,5.52347859 51.9068828,5.52347859 C51.1327711,5.52347859 50.3925004,5.35850398 49.7283718,5.06239568 C49.7114513,4.92280178 49.698761,4.77897775 49.698761,4.6309236 C49.698761,2.78659196 51.1919928,1.29336015 53.0363244,1.29336015 C53.3662737,1.29336015 53.6835326,1.33989145 53.983871,1.42872394 C54.0727035,1.46256489 54.1657661,1.49640584 54.2588287,1.52178655 C54.5591671,1.61061903 54.876426,1.65715034 55.2063752,1.65715034 C55.9551062,1.66138046 56.6446155,1.4202637 57.198761,1.0057121 Z" id="Combined-Shape"></path>
                </g>
                <path d="M0.87890625,33.0644531 C1.35547113,32.7011701 1.97265246,32.5195312 2.73046875,32.5195312 C3.49219131,32.5195312 4.09960711,32.6796859 4.55273438,33 C5.00976791,33.3242204 5.26367162,33.7773408 5.31445312,34.359375 L3.94921875,34.359375 C3.83593693,33.867185 3.4316441,33.6210938 2.73632813,33.6210938 C2.40038895,33.6210938 2.12500107,33.6933587 1.91015625,33.8378906 C1.68749889,33.9824226 1.57617188,34.1699207 1.57617188,34.4003906 C1.57617188,34.7441423 1.89257496,34.9882805 2.52539062,35.1328125 L3.65625,35.390625 C4.27344059,35.5312507 4.72460795,35.7382799 5.00976562,36.0117188 C5.30273584,36.2929702 5.44921875,36.6679664 5.44921875,37.1367188 C5.44921875,37.7500031 5.19336193,38.2460919 4.68164062,38.625 C4.17773186,39.0000019 3.52344152,39.1875 2.71875,39.1875 C1.91796475,39.1875 1.27929926,39.0234391 0.802734375,38.6953125 C0.322263223,38.3671859 0.0546877734,37.9121123 0,37.3300781 L1.43554688,37.3300781 C1.58398512,37.8339869 2.02343385,38.0859375 2.75390625,38.0859375 C3.12109559,38.0859375 3.41992072,38.0117195 3.65039062,37.8632812 C3.88086053,37.7187493 3.99609375,37.5273449 3.99609375,37.2890625 C3.99609375,36.933592 3.70117482,36.6914069 3.11132812,36.5625 L1.97460938,36.2988281 C0.76757209,36.021483 0.1640625,35.4160203 0.1640625,34.4824219 C0.1640625,33.904294 0.402341367,33.4316425 0.87890625,33.0644531 Z M16.1398437,33.4277344 C16.6164086,34.0175811 16.8546875,34.8261667 16.8546875,35.8535156 C16.8546875,36.8769582 16.6203148,37.6835908 16.1515625,38.2734375 C15.6789038,38.8671905 15.0382852,39.1640625 14.2296875,39.1640625 C13.2726514,39.1640625 12.6203142,38.8046911 12.2726562,38.0859375 L12.1730468,38.0859375 L12.1730468,41.109375 L10.7199218,41.109375 L10.7199218,32.6484375 L12.1203125,32.6484375 L12.1203125,33.7089844 L12.2199218,33.7089844 C12.4035165,33.3457013 12.6710919,33.0605479 13.0226562,32.8535156 C13.3781267,32.6464833 13.7746071,32.5429688 14.2121093,32.5429688 C15.0246134,32.5429688 15.6671851,32.8378877 16.1398437,33.4277344 Z M14.9386718,37.3769531 C15.2199232,37.0097638 15.3605468,36.5019564 15.3605468,35.8535156 C15.3605468,35.2050749 15.2179701,34.6972675 14.9328125,34.3300781 C14.651561,33.9628888 14.26094,33.7792969 13.7609375,33.7792969 C13.2648412,33.7792969 12.872267,33.9648419 12.5832031,34.3359375 C12.2941391,34.7070331 12.1476562,35.2128874 12.14375,35.8535156 C12.1476562,36.4941438 12.2941391,36.9999981 12.5832031,37.3710938 C12.8683608,37.7421894 13.2589818,37.9277344 13.7550781,37.9277344 C14.2589868,37.9277344 14.6535142,37.7441425 14.9386718,37.3769531 Z M23.7308593,34.1015625 C23.4496079,34.3867202 23.2933594,34.7636695 23.2621093,35.2324219 L26.2796874,35.2324219 C26.2640623,34.755857 26.1234387,34.3769545 25.8578124,34.0957031 C25.5921861,33.8144517 25.2406271,33.6738281 24.8031249,33.6738281 C24.369529,33.6738281 24.0121107,33.8164048 23.7308593,34.1015625 Z M27.6683593,37.2949219 C27.5316398,37.8808623 27.2113305,38.3417952 26.7074218,38.6777344 C26.1996067,39.0175798 25.5707068,39.1875 24.820703,39.1875 C23.8792921,39.1875 23.1390651,38.8925811 22.5999999,38.3027344 C22.064841,37.7167939 21.7972655,36.9082083 21.7972655,35.8769531 C21.7972655,34.845698 22.0667941,34.0273468 22.6058593,33.421875 C23.1449245,32.8203095 23.8792921,32.5195312 24.8089843,32.5195312 C25.7230513,32.5195312 26.4398411,32.8066378 26.9593749,33.3808594 C27.4750025,33.9511747 27.7328124,34.7421824 27.7328124,35.7539062 L27.7328124,36.2226562 L23.2562499,36.2226562 L23.2562499,36.2988281 C23.2757813,36.8339871 23.4281235,37.2558578 23.7132812,37.5644531 C24.0023451,37.8769547 24.3851538,38.0332031 24.8617187,38.0332031 C25.5960973,38.0332031 26.0726551,37.7871118 26.2914062,37.2949219 L27.6683593,37.2949219 Z M37.1460936,34.8046875 C37.0757808,34.4804671 36.9234385,34.2246103 36.6890624,34.0371094 C36.4390611,33.8378896 36.1207049,33.7382812 35.7339842,33.7382812 C35.2339817,33.7382812 34.8453137,33.9218732 34.5679686,34.2890625 C34.2867172,34.6562518 34.1460936,35.1718717 34.1460936,35.8359375 C34.1460936,36.5078159 34.2867172,37.0312481 34.5679686,37.40625 C34.84922,37.7812519 35.237888,37.96875 35.7339842,37.96875 C36.5191444,37.96875 36.9898428,37.6269565 37.1460936,36.9433594 L38.5289061,36.9433594 C38.4468744,37.6269565 38.1656273,38.1679668 37.6851561,38.5664062 C37.1851536,38.9804708 36.5367226,39.1875 35.7398436,39.1875 C34.774995,39.1875 34.0230494,38.8925811 33.4839842,38.3027344 C32.944919,37.7128877 32.6753905,36.8906303 32.6753905,35.8359375 C32.6753905,34.7929635 32.944919,33.9804717 33.4839842,33.3984375 C34.0230494,32.8124971 34.7730419,32.5195312 35.7339842,32.5195312 C36.5386758,32.5195312 37.191013,32.7324197 37.6910155,33.1582031 C38.1714866,33.5644552 38.4507807,34.1132778 38.5289061,34.8046875 L37.1460936,34.8046875 Z M43.7351561,32.6484375 L45.1824217,32.6484375 L45.1824217,39.0585938 L43.7351561,39.0585938 L43.7351561,32.6484375 Z M43.8113279,31.3769531 C43.6433583,31.2285149 43.5593748,31.0371105 43.5593748,30.8027344 C43.5593748,30.5683582 43.6433583,30.3769539 43.8113279,30.2285156 C43.9792975,30.0761711 44.1941391,30 44.4558592,30 C44.7214855,30 44.9382802,30.0761711 45.1062498,30.2285156 C45.2703131,30.3769539 45.3523436,30.5683582 45.3523436,30.8027344 C45.3523436,31.0371105 45.2703131,31.2285149 45.1062498,31.3769531 C44.9382802,31.5292976 44.7214855,31.6054688 44.4558592,31.6054688 C44.1941391,31.6054688 43.9792975,31.5292976 43.8113279,31.3769531 Z M54.0683591,37.6464844 C54.3613294,37.3925769 54.5078123,37.08008 54.5078123,36.7089844 L54.5078123,36.1992188 L53.0605466,36.2929688 C52.2636677,36.3437503 51.8652341,36.6328099 51.8652341,37.1601562 C51.8652341,37.4257826 51.9687487,37.636718 52.175781,37.7929688 C52.378907,37.9453133 52.6445294,38.0214844 52.972656,38.0214844 C53.4101582,38.0214844 53.7753889,37.8964856 54.0683591,37.6464844 Z M51.0214841,38.6425781 C50.6230446,38.2871076 50.4238279,37.8203154 50.4238279,37.2421875 C50.4238279,36.6640596 50.6347633,36.2109391 51.0566404,35.8828125 C51.4746112,35.5546859 52.0742146,35.3671877 52.8554685,35.3203125 L54.5078123,35.2207031 L54.5078123,34.6816406 C54.5078123,34.0292936 54.1054725,33.703125 53.300781,33.703125 C52.5976525,33.703125 52.1777348,33.925779 52.0410154,34.3710938 L50.6699216,34.3710938 C50.7285157,33.8046847 51.0039036,33.3554704 51.4960935,33.0234375 C51.9843772,32.6874983 52.609371,32.5195312 53.3710935,32.5195312 C54.1914101,32.5195312 54.8261694,32.7089825 55.2753904,33.0878906 C55.7207051,33.4667988 55.9433591,33.9980435 55.9433591,34.6816406 L55.9433591,39.0585938 L54.5429685,39.0585938 L54.5429685,38.1796875 L54.4433591,38.1796875 C54.064451,38.8359408 53.4316448,39.1640625 52.5449216,39.1640625 C51.9199185,39.1640625 51.4121111,38.9902361 51.0214841,38.6425781 Z M61.5480466,30.1699219 L63.0011716,30.1699219 L63.0011716,39.0585938 L61.5480466,39.0585938 L61.5480466,30.1699219 Z M68.652734,32.6484375 L70.0999997,32.6484375 L70.0999997,39.0585938 L68.652734,39.0585938 L68.652734,32.6484375 Z M68.7289059,31.3769531 C68.5609363,31.2285149 68.4769528,31.0371105 68.4769528,30.8027344 C68.4769528,30.5683582 68.5609363,30.3769539 68.7289059,30.2285156 C68.8968755,30.0761711 69.1117171,30 69.3734372,30 C69.6390635,30 69.8558582,30.0761711 70.0238278,30.2285156 C70.1878911,30.3769539 70.2699215,30.5683582 70.2699215,30.8027344 C70.2699215,31.0371105 70.1878911,31.2285149 70.0238278,31.3769531 C69.8558582,31.5292976 69.6390635,31.6054688 69.3734372,31.6054688 C69.1117171,31.6054688 68.8968755,31.5292976 68.7289059,31.3769531 Z M76.2671871,33.0644531 C76.743752,32.7011701 77.3609333,32.5195312 78.1187496,32.5195312 C78.8804722,32.5195312 79.487888,32.6796859 79.9410152,33 C80.3980488,33.3242204 80.6519525,33.7773408 80.702734,34.359375 L79.3374996,34.359375 C79.2242178,33.867185 78.819925,33.6210938 78.124609,33.6210938 C77.7886698,33.6210938 77.5132819,33.6933587 77.2984371,33.8378906 C77.0757798,33.9824226 76.9644527,34.1699207 76.9644527,34.4003906 C76.9644527,34.7441423 77.2808558,34.9882805 77.9136715,35.1328125 L79.0445309,35.390625 C79.6617215,35.5312507 80.1128888,35.7382799 80.3980465,36.0117188 C80.6910167,36.2929702 80.8374996,36.6679664 80.8374996,37.1367188 C80.8374996,37.7500031 80.5816428,38.2460919 80.0699215,38.625 C79.5660127,39.0000019 78.9117224,39.1875 78.1070309,39.1875 C77.3062456,39.1875 76.6675801,39.0234391 76.1910152,38.6953125 C75.7105441,38.3671859 75.4429686,37.9121123 75.3882809,37.3300781 L76.8238277,37.3300781 C76.972266,37.8339869 77.4117147,38.0859375 78.1421871,38.0859375 C78.5093765,38.0859375 78.8082016,38.0117195 79.0386715,37.8632812 C79.2691414,37.7187493 79.3843746,37.5273449 79.3843746,37.2890625 C79.3843746,36.933592 79.0894557,36.6914069 78.499609,36.5625 L77.3628902,36.2988281 C76.155853,36.021483 75.5523434,35.4160203 75.5523434,34.4824219 C75.5523434,33.904294 75.7906222,33.4316425 76.2671871,33.0644531 Z M88.0183589,31.1191406 L88.0183589,32.6894531 L89.4246089,32.6894531 L89.4246089,33.8496094 L88.0183589,33.8496094 L88.0183589,36.9960938 C88.0183589,37.6054718 88.3113248,37.9101562 88.8972652,37.9101562 C89.0300784,37.9101562 89.190233,37.9003907 89.3777339,37.8808594 L89.3777339,39.0175781 C89.1433578,39.0644534 88.8933603,39.0878906 88.6277339,39.0878906 C87.8933553,39.0878906 87.3660168,38.9531263 87.0457027,38.6835938 C86.7292949,38.4140612 86.5710933,37.9687531 86.5710933,37.3476562 L86.5710933,33.8496094 L85.5281246,33.8496094 L85.5281246,32.6894531 L86.5710933,32.6894531 L86.5710933,31.1191406 L88.0183589,31.1191406 Z" id="specialist" fill="#818C9B"></path>
            </g>
        </g>
    </g>
</svg>