<svg width="24" height="24" viewBox="0 0 24 24" fill="none" xmlns="http://www.w3.org/2000/svg">
<path d="M18 8.40002C18 6.80873 17.3679 5.2826 16.2426 4.15738C15.1174 3.03217 13.5913 2.40002 12 2.40002C10.4087 2.40002 8.88258 3.03217 7.75736 4.15738C6.63214 5.2826 6 6.80873 6 8.40002C6 15.4 3 17.4 3 17.4H21C21 17.4 18 15.4 18 8.40002Z" stroke="#616F82" stroke-width="1.3" stroke-linecap="round" stroke-linejoin="round"/>
<path d="M13.7295 20.2C13.5537 20.503 13.3014 20.7546 12.9978 20.9295C12.6941 21.1044 12.3499 21.1964 11.9995 21.1964C11.6492 21.1964 11.3049 21.1044 11.0013 20.9295C10.6977 20.7546 10.4453 20.503 10.2695 20.2" stroke="#616F82" stroke-width="1.2" stroke-linecap="round" stroke-linejoin="round"/>
</svg>
